<svg xmlns="http://www.w3.org/2000/svg" viewBox="0 0 1200 760" role="img" aria-label="Visual browser automation workspace">
  <defs>
    <linearGradient id="bga" x1="0" y1="0" x2="1" y2="1"><stop stop-color="#07101E"/><stop offset="1" stop-color="#070B14"/></linearGradient>
    <linearGradient id="accent" x1="0" y1="0" x2="1" y2="1"><stop stop-color="#00E5FF"/><stop offset="1" stop-color="#38BDF8"/></linearGradient>
  </defs>
  <rect width="1200" height="760" fill="url(#bga)"/>
  <circle cx="180" cy="120" r="240" fill="#00E5FF" opacity=".08"/>
  <rect x="70" y="70" width="1060" height="620" rx="34" fill="#0F172A" opacity=".78" stroke="#fff" stroke-opacity=".08"/>
  <rect x="108" y="110" width="700" height="500" rx="24" fill="#F8FAFC"/>
  <rect x="108" y="110" width="700" height="54" rx="24" fill="#111827"/>
  <circle cx="138" cy="137" r="6" fill="#EF4444"/><circle cx="160" cy="137" r="6" fill="#F59E0B"/><circle cx="182" cy="137" r="6" fill="#10B981"/>
  <rect x="220" y="124" width="420" height="26" rx="13" fill="#1F2937"/>
  <text x="242" y="142" fill="#94A3B8" font-family="Inter, Arial" font-size="12">youtube.com/results?search_query=cybersecurity+tutorials</text>
  <rect x="150" y="205" width="170" height="36" rx="18" fill="#FF0033"/>
  <text x="190" y="229" fill="#fff" font-family="Inter, Arial" font-size="15" font-weight="800">YouTube</text>
  <rect x="150" y="275" width="500" height="42" rx="21" fill="#E5E7EB"/>
  <text x="180" y="301" fill="#111827" font-family="Inter, Arial" font-size="15">cybersecurity tutorials</text>
  <rect x="680" y="275" width="78" height="42" rx="21" fill="#0F172A"/>
  <text x="703" y="301" fill="#fff" font-family="Inter, Arial" font-size="14">Search</text>
  <g>
    <rect x="150" y="365" width="190" height="108" rx="16" fill="#CBD5E1"/>
    <rect x="365" y="365" width="320" height="18" rx="9" fill="#111827"/>
    <rect x="365" y="395" width="260" height="14" rx="7" fill="#64748B"/>
    <rect x="365" y="423" width="220" height="14" rx="7" fill="#94A3B8"/>
  </g>
  <g transform="translate(0,135)">
    <rect x="150" y="365" width="190" height="108" rx="16" fill="#CBD5E1"/>
    <rect x="365" y="365" width="290" height="18" rx="9" fill="#111827"/>
    <rect x="365" y="395" width="240" height="14" rx="7" fill="#64748B"/>
    <rect x="365" y="423" width="210" height="14" rx="7" fill="#94A3B8"/>
  </g>
  <path d="M725 327 758 404 729 394 710 435 691 426 710 386 680 376Z" fill="#0F172A" stroke="#fff" stroke-opacity=".6"/>
  <rect x="840" y="110" width="250" height="500" rx="24" fill="#07101E" stroke="#fff" stroke-opacity=".08"/>
  <text x="870" y="154" fill="#E6EDF3" font-family="Inter, Arial" font-size="19" font-weight="800">Browser Operator</text>
  <text x="870" y="182" fill="#94A3B8" font-family="Inter, Arial" font-size="13">Live actions and DOM awareness</text>
  <g font-family="Inter, Arial" font-size="13">
    <rect x="870" y="225" width="184" height="42" rx="14" fill="#00E5FF" opacity=".1"/>
    <text x="890" y="252" fill="#00E5FF">Opening YouTube</text>
    <rect x="870" y="281" width="184" height="42" rx="14" fill="#fff" opacity=".045"/>
    <text x="890" y="308" fill="#E6EDF3">Typing query</text>
    <rect x="870" y="337" width="184" height="42" rx="14" fill="#fff" opacity=".045"/>
    <text x="890" y="364" fill="#E6EDF3">Pressing Enter</text>
    <rect x="870" y="393" width="184" height="42" rx="14" fill="#fff" opacity=".045"/>
    <text x="890" y="420" fill="#E6EDF3">Reading results</text>
  </g>
  <rect x="870" y="500" width="184" height="54" rx="18" fill="url(#accent)"/>
  <text x="924" y="533" fill="#07101E" font-family="Inter, Arial" font-size="16" font-weight="800">Visible</text>
</svg>
