<svg xmlns="http://www.w3.org/2000/svg" viewBox="0 0 1200 760" role="img" aria-label="JX Jarvis dashboard interface">
  <defs>
    <linearGradient id="bg" x1="0" y1="0" x2="1" y2="1">
      <stop offset="0" stop-color="#0B1220"/>
      <stop offset="1" stop-color="#070B14"/>
    </linearGradient>
    <linearGradient id="cyan" x1="0" y1="0" x2="1" y2="1">
      <stop offset="0" stop-color="#00E5FF"/>
      <stop offset="1" stop-color="#5EEAD4"/>
    </linearGradient>
    <filter id="shadow" x="-20%" y="-20%" width="140%" height="140%">
      <feDropShadow dx="0" dy="24" stdDeviation="28" flood-color="#000" flood-opacity=".45"/>
    </filter>
  </defs>
  <rect width="1200" height="760" fill="url(#bg)"/>
  <circle cx="915" cy="90" r="260" fill="#00E5FF" opacity=".08"/>
  <circle cx="220" cy="680" r="300" fill="#64748B" opacity=".08"/>
  <rect x="52" y="48" width="1096" height="664" rx="34" fill="#0F172A" opacity=".74" stroke="#fff" stroke-opacity=".08" filter="url(#shadow)"/>
  <rect x="84" y="82" width="190" height="596" rx="26" fill="#07101E" stroke="#fff" stroke-opacity=".06"/>
  <rect x="112" y="118" width="54" height="54" rx="18" fill="#0B1020" stroke="#fff" stroke-opacity=".1"/>
  <image href="../assets/logo.png" x="112" y="118" width="54" height="54" preserveAspectRatio="xMidYMid slice" clip-path="inset(0 round 18px)"/>
  <text x="178" y="136" fill="#E6EDF3" font-family="Inter, Arial" font-size="17" font-weight="700">JX Jarvis</text>
  <text x="178" y="158" fill="#94A3B8" font-family="Inter, Arial" font-size="12">AI Workspace</text>
  <g fill="#94A3B8" font-family="Inter, Arial" font-size="15">
    <rect x="112" y="212" width="132" height="38" rx="14" fill="#fff" opacity=".075"/>
    <text x="130" y="236" fill="#E6EDF3">Home</text>
    <text x="130" y="291">Chat</text>
    <text x="130" y="346">Voice</text>
    <text x="130" y="401">Automation</text>
    <text x="130" y="456">Browser</text>
    <text x="130" y="511">Settings</text>
  </g>
  <rect x="306" y="82" width="810" height="78" rx="24" fill="#111C2E" stroke="#fff" stroke-opacity=".06"/>
  <text x="334" y="118" fill="#94A3B8" font-family="Inter, Arial" font-size="14">Personal AI Workspace</text>
  <text x="334" y="143" fill="#E6EDF3" font-family="Inter, Arial" font-size="24" font-weight="800">Command Center</text>
  <rect x="876" y="104" width="80" height="34" rx="14" fill="#fff" opacity=".04" stroke="#fff" stroke-opacity=".08"/>
  <text x="898" y="126" fill="#94A3B8" font-family="Inter, Arial" font-size="13">Ctrl K</text>
  <rect x="966" y="104" width="118" height="34" rx="14" fill="#00E5FF" opacity=".1"/>
  <circle cx="986" cy="121" r="5" fill="#00E5FF"/>
  <text x="1000" y="126" fill="#E6EDF3" font-family="Inter, Arial" font-size="13">Online</text>
  <rect x="306" y="184" width="500" height="320" rx="30" fill="#0A1424" stroke="#fff" stroke-opacity=".07"/>
  <path d="M416 352c22-50 58-77 107-77 68 0 111 48 111 108 0 37-14 66-42 88" fill="none" stroke="#00E5FF" stroke-opacity=".36" stroke-width="18" stroke-linecap="round"/>
  <circle cx="556" cy="346" r="70" fill="#00E5FF" opacity=".08"/>
  <circle cx="556" cy="346" r="42" fill="url(#cyan)"/>
  <text x="388" y="230" fill="#E6EDF3" font-family="Inter, Arial" font-size="22" font-weight="800">Voice-ready assistant</text>
  <text x="388" y="258" fill="#94A3B8" font-family="Inter, Arial" font-size="14">Wake word, planning, execution, verification.</text>
  <rect x="830" y="184" width="286" height="320" rx="30" fill="#0A1424" stroke="#fff" stroke-opacity=".07"/>
  <text x="858" y="226" fill="#E6EDF3" font-family="Inter, Arial" font-size="18" font-weight="800">Live thinking</text>
  <g font-family="Inter, Arial" font-size="13">
    <rect x="858" y="254" width="220" height="44" rx="14" fill="#fff" opacity=".045"/>
    <text x="876" y="281" fill="#E6EDF3">Understanding request</text>
    <rect x="858" y="310" width="220" height="44" rx="14" fill="#fff" opacity=".045"/>
    <text x="876" y="337" fill="#E6EDF3">Planning workflow</text>
    <rect x="858" y="366" width="220" height="44" rx="14" fill="#00E5FF" opacity=".09"/>
    <text x="876" y="393" fill="#00E5FF">Executing tools</text>
    <rect x="858" y="422" width="220" height="44" rx="14" fill="#fff" opacity=".045"/>
    <text x="876" y="449" fill="#E6EDF3">Verifying result</text>
  </g>
  <rect x="306" y="528" width="810" height="84" rx="28" fill="#0A1424" stroke="#fff" stroke-opacity=".07"/>
  <text x="334" y="563" fill="#94A3B8" font-family="Inter, Arial" font-size="14">Ask Jarvis to open apps, automate browser, generate code, or analyze the screen...</text>
  <rect x="1000" y="548" width="82" height="44" rx="16" fill="url(#cyan)"/>
  <text x="1024" y="576" fill="#07101E" font-family="Inter, Arial" font-size="14" font-weight="800">Run</text>
</svg>
